<svg id="Layer_1" data-name="Layer 1" xmlns="http://www.w3.org/2000/svg" viewBox="0 0 1920 60"><path d="M98.28,23.68,79.947,25.3c-4.463.379-9.123.767-13.65,1.139H50.105c-2.064-.458-8.212-1.006-16.952-1.622L26.1,24.338l-8.246-.5L.25,22.946V60.379H1920V26.438H1603.033c20.614-1.438,41.423.165,62.617-1.079-.907.252-3.4.349.684.4,27.027.246,37.779-2.123,59.493-1.025l-2.715.755c1.845-.09,14.669-.712,12.119-1.55-18.2.275-21.637.623-37.916.4,6.668-.687,21.172-1.26,31.851-1.265l1.165-1.325c13.722-1.4,27.683.652,41.336-.743l-16.024-.891c.453-.057,1.719-.09,2.727-.134-7.252.134-13.5.31-15.215.624-24.126.721-36.525-1.176-40.418-1.889-11.29-.428,4.063-1.671,2.7-2.487-18.157.278-17.1,1.75-35.29,2.026-4.664-.171-3.216-.432-1.152-.578l-11.988.662c-.68-.409-31.8-.708-13.366-1.646l11.776.058c-25.38-.956-69.274-2.007-67.882-3.49-13.86-.331-10.007.39-32.049-.052-10.234,1.052.809,2.134-23.276,2.857l19,.524c3.913-.2,7.162-.463,11.431-.629l-19.78.123c12.5-.489,10.275-1.051,13.949-2.063,30.431-.1,38.779,1.734,54.2,2.218-9.437.8-25.737.568-19.651,1.846-15.215-1.138-16.874,1.094-34.55.047l3.4-.345c-14.333.99-16.312-.229-28.156.667.9-.253-.68-.409-2.2-.563-25.757.57,7.793.775-18.032,2-22.92-.19-7.45-2.1-13.763-2.713,38.463-1.718-.781-2.136,40.823-3.542-.146-1.724-16.478-1.953-38.718-1.734,14.495.734-9.227,2.526,10.039,3.722-33.255.863-30.467,4.216-67.635,2.638l.911-.254L1428.2,19.261l-21.043-.693c13.042-1.81,29.1-.922,39.362-1.972-25.611-1.814-34.384,1.78-63.933,1.631-24.579-2.066,30.075-1.177,29.945-2.9-5.928.451-22.05-.439-20.144-.945,27.655.652,16.834-1.086,47.657-.13-15.025.586,2.3.562-.522,1.323,4.395-.606,33.255-.868,53.646-.581,4.654-1.262-17.684-1.044-30.556-1.619-24.385,1.383-49.664-1.094-68.408.5-26.319.163-1.975-1.219-3.565-1.373-23.632-.6-10.254,1.05-17.773,1.342-35.695.958-39.685-1.484-65.126-1.573-21.172,1.7-72.713,1.11-108.8,1,4.366-.6-.425-1.063-2.6-1.63-21.5,2.359-13.763,1.4-40.624,2.884l22.722.847c-18.226.278-32.887,1.93-49.6.633,22.18,2.168-29.37,1.581-42.809,2.321-18.61-.786-37.281.807-47.45-.529l2.529-.1-27.028-.244,3.27-2.073c-18.566-.794-41.405.745-35,1.365-19.513-.535-8-.776-10.837-1.744,11-.644,34.667-2.431,41.434-.748a35.662,35.662,0,0,0-6.641.04c50.761.947,16.559-2.518,41.891-3.046-13.2-.148-23.05-1.152-37.156-.6-6.54.044-33.187.864-46.622,1.6,18.453-.936,27.938-.01,42.421.724-12.281-.173-14.284.995-24.806.317l3.428-.351-13.407.742c-2.007-1.222-36.771-.513-16.409-1.952-18.23.275-6.264,1.106-22.851,1.537l32.729.457-.554,1.316c-11.942.9-14.827-.076-28.007.01l1.125,1.471-23.365-1.251c2.885.966-15.053.586-20.055.782-12.9-.58-4.544-2.85-26.465-1.564l1.582.155c-12.548.491-19.97.784-37.929.4.968-.249,5.917-.446,8.377-.542-25.121-.752-65.422,1.47-76.882-.679,2.036-1.161,12.508-.487,13.043-1.806,38.718,1.733,27.128-2.139,72.741-1.109,2.105,2.95,38.459-1.718,47.135,1.192-17.9-.383-41.659,1.4-38.491,1.718,16.478-.167,39.568-.23,51.056.076-10.1-.963-6.863-2.589.486-3.6-26.643.819-75.073-1.181-112.783-1.442l4.236,1.777c-32.571,1.275,3.954-1.663-21.467-1.756l-11.233,1.3-1.6-.156-18.663,1.594c13.18-.078,7.122-1.358,21.617-.625,12.893.578-.546,1.319-4.228,2.33-8.814-.525-40.179-.161-20.816-1.351l-34.4,1.77c.246-.658,7.753-.952,11.253-1.3l-24.838.312.907-.25c-20,.781-47.945.788-63.237,2.038,34.044,1.268-16.231,1.493-13.317,2.466-12.241-.172-15.964-3.272,10-4.5,6.993,1.026,24.826-.314,37.957-.394-16.943-.637-22.22.214-35.468.3,9.363-.795-17.627-1.04-17.348-1.7,1.776-.506,7.32-2.02,24.34-1.385,25.421.089,2.659,1.627,10.169,1.333,6.738,1.688,35.445-.3,50.858.182,1.619.155-3.427.35-5.928.448,13.249-.083,41.15-.088,43.193-1.254l-33.153.864c-7.224-.366,10.233-1.052-.13-1.728-7.539.292-16.579.432-26.388.166l1.845-.5c-20.1-.944-51.529-.589-74.676-.114-5.188,2.577-17.259,4.133-27.436,6.9-34.448.055-70.526-.052-107.211-.562.594.549.141,1.087-1.61,1.566-10.392-.674-29.528-.147-28.978-1.466-11.173,1.3-42.826,2.322-36.78,3.6l-4.2.088C386.5,17.425,366.457,16.306,330.4,16.01c-7.053-.023-8.061.855-6.462,2.1-7.616-.378-14.779-.722-22.01-.774a147.365,147.365,0,0,1,19.768-1.4L265.647,15.5l4.346-.6-22.078.864c12.456-.336,31.713.023,27,1.327-25.065.975-39.268-.419-60.521,1.275.138-2.382-7.114-2.749,0-4.111a23.777,23.777,0,0,1,2.509.123c7.963-1.29,24.955-2.691,38.135-3-46.552-.781-34.55.05-75.4-.52-3.564-1.377,37.582-1.469,28.1-2.4l38.33.668a104.371,104.371,0,0,0-10.42.629c26.416-.993,36.007.263,55.875-1.322,12.585.64-19.589,1.055-5.8,1.286a192.615,192.615,0,0,0-28.76,2.875c30.184.55,17.142-1.748,42.838-2.32l19.2,1.2c11.61-.237-3.792-.721-4.475-1.122,14.118-.339,19.484.535,30.171.553-3.14-.312-10.351-.679-8.546-1.185,17.716,1.045,35.16.365,51.6,2.312-9.485-.928,10.837-2.367,18.4-2.663l-33.8-1.926c-42.926.6-69.67-.309-116.024.634l2.736-.756c-73-2.347-60.59,3.662-123.038,3.718-1.719-1.878-28.876.262-26.517-1.562,18.849.127,15.025-.585,9.651-1.456-10.946.643-18.068,2-39.171,1.312,7.785-.953-10.776-1.746,9.91-2.114C61.31,6.82,45.613,7,31.013,8.647l-8.034.247-1.733.043-2.782.037-5.483.053c-5.175.041-9.32.044-12.731.019v1.745q3.914-.2,8.643-.363l12.34-.351L29.187,9.8C40.31,9.478,53.334,9.3,66.174,9.009c.679.406,8.829.521,5.373.87a74.006,74.006,0,0,1-7.518.072c1.934.76-12.4,1.25,11.755,1.709-8.672,1.207-26.732,3.208-26.092,3.619-7.039.166-15.506.279-23.624.3l-15.2-.048C7.1,15.5,3.532,15.456.25,15.4v7.161l21.392.156,21.533.22,43.547.416-3.844-.717c9.773.267,17.607-.683,22.981.187C105.992,22.912,103.032,23.233,98.28,23.68Zm1509.685,2.2-5.546.559h-7.9C1599.736,26.212,1604.3,26.022,1607.965,25.879ZM1156.78,24.222a17.233,17.233,0,0,1-3.435.354c27.978-.01,30.458-.105,52.707-.325l-6.867.7c3.949.987,22.021-.075,40.11-.158,5.374-.557,17.032-1.105,24.186-.406l-2.788.762c3.173.669,21.111.707,41.316.721q-2.825.252-6,.571H1106.2C1121.884,25.893,1138.807,25.168,1156.78,24.222ZM759.472,25.533,800.1,22.568l-.939.248,35.477-.3-4.339.6,20.857-1.03c-.494,1.317,6.4.616,5.2,1.528,13.062,2.306,46.374-.942,74.7.114l-4.338.6c15.341-1.25,53.379.084,77.849.418l-.87.256c-11.339.4-15.756.931-14.206,1.433H954.494c-.711-.139-2.682-.332-5.4-.6-4.859.313-10.955.477-17.131.6H878.9c1.858-.28,5.278-.538,8.7-.8l-69.282.757a.372.372,0,0,0-.062.039H757.888C760.06,26.177,759.441,25.97,759.472,25.533Zm-308.389-3.2,1.858,1.218c43.432.474,74.283-2.676,119.176-2.05-6.2,1.108-23.207.473-20.9,1.034,27,.244,23.3-2.857,49.793-1.294-36.146.382,18,.574-6.312,1.556,46.331-1.552,95,.851,125.408.506-7.895-.778,12.824-1.148,13.722-1.4,8.178.112,5.415.874-1.2.911,16.167.683,18.971,1.7,16.284,2.673l-32.988.142c5.888.184,10.289.517,14.5.807H679.555c-3.176-.236-4.842-.5-3.347-.757-11.3.362-28.01-.652-34.1-.415,11.708.5,9.434.855,3.017,1.172h-18.4c.158-.354,3.509-.723-2.8-.895l-26.359.16,22.96.191-2.725.544H451.036a178.433,178.433,0,0,1-26.794-3.6Zm-135.7,2.48-2.5-.036,25.454-.42c2.372,1.065,3.355,1.866.93,2.077H335.62c-.138-.007-.259-.01-.4-.017l.231.017H302.254c-2.98-.265-7.231-.494-11.987-.641Zm-27.407,1.621H258.53C261.518,25.825,276.1,26.035,287.973,26.438Z" fill="#1c1c1c"/></svg>